<?xml version="1.0" encoding="utf-8"?>
<!-- Generator: Adobe Illustrator 22.0.1, SVG Export Plug-In . SVG Version: 6.00 Build 0)  -->
<svg version="1.1" id="Layer_1" xmlns="http://www.w3.org/2000/svg" xmlns:xlink="http://www.w3.org/1999/xlink" x="0px" y="0px"
	 viewBox="0 0 48 23.9" style="enable-background:new 0 0 48 23.9;" xml:space="preserve">
<style type="text/css">
	.st0{fill:#007EBA;stroke:#FFFFFF;stroke-width:0.4;}
	.st1{fill:#FFFFFF;}
	.st2{fill:none;stroke:#000000;stroke-width:0.28;stroke-linecap:round;}
	.st3{fill:none;stroke:#000000;stroke-width:0.168;stroke-linecap:round;}
</style>
<g>
	<polygon class="st0" points="0.1,11.9 14.6,0.3 47.9,0.3 35.9,11.9 	"/>
	<path d="M32.9,6.4l0.9-0.9l2.8,1.3l-4.9,1.4l1.1-1.5h-8.9l0.3-0.3H32.9z"/>
	<path d="M27.5,3.5l-0.3,0.3h-9l-1.4,1.1l-2.3-1.1l5.3-1.6l-1.3,1.3H27.5z"/>
	<path d="M22.5,8.5l-0.3,0.3h-9.1l-1.4,1L9.4,8.7l5.5-1.5l-1.2,1.3H22.5z"/>
	<path d="M38,2.2l0.9-0.9l2.8,1.2L36.8,4l1.1-1.4h-8.9l0.3-0.3H38z"/>
	<path class="st1" d="M32.9,6.7l0.9-0.9l2.4,1l-4.9,1.4l1.2-1.2h-8.9L24,6.7H32.9z"/>
	<path class="st1" d="M27.2,3.8l-0.3,0.3H18L17.1,5l-2.4-1.1l4.9-1.4l-1.2,1.2H27.2z"/>
	<polygon class="st0" points="35.9,23.5 47.9,10.6 47.9,0.3 35.9,11.9 	"/>
	<path class="st1" d="M22.2,8.8l-0.3,0.3H13L12.1,10L9.7,8.9l4.9-1.4l-1.2,1.2H22.2z"/>
	<path class="st1" d="M38,2.5l0.9-0.9l2.4,1l-4.9,1.4l1.2-1.2h-8.9l0.3-0.3H38z"/>
	<line class="st2" x1="37.4" y1="2.9" x2="36.3" y2="4"/>
	<line class="st3" x1="32.1" y1="7.4" x2="31.4" y2="8"/>
	<line class="st3" x1="24" y1="6.7" x2="23.7" y2="6.9"/>
	<line class="st2" x1="29.3" y1="2.3" x2="28.8" y2="2.8"/>
	<rect x="0.2" y="11.9" class="st0" width="35.7" height="11.6"/>
</g>
</svg>
