<?xml version="1.0" encoding="utf-8"?>
<!-- Generator: Adobe Illustrator 22.0.1, SVG Export Plug-In . SVG Version: 6.00 Build 0)  -->
<svg version="1.1" id="Layer_1" xmlns="http://www.w3.org/2000/svg" xmlns:xlink="http://www.w3.org/1999/xlink" x="0px" y="0px"
	 viewBox="0 0 37.3 25.9" style="enable-background:new 0 0 37.3 25.9;" xml:space="preserve">
<style type="text/css">
	.st0{fill:#026C9B;stroke:#FFFFFF;stroke-width:0.4;}
	.st1{fill:#FFFFFF;}
</style>
<g>
	<path class="st0" d="M37.2,7.7c0,4-8.2,7.2-18.4,7.2c-10.2,0-18.4-3.2-18.4-7.2v10.5c0,4,8.2,7.2,18.4,7.2
		c10.2,0,18.4-3.2,18.4-7.2V7.7z"/>
	<ellipse class="st0" cx="18.8" cy="7.7" rx="18.4" ry="7.2"/>
	<polygon class="st1" points="14.6,4.9 16.1,7.1 10.4,8.5 11.6,7.4 2.7,5.9 5,4.2 13.5,5.7 	"/>
	<polygon class="st1" points="22.7,10.4 21.6,8 26.8,7 25.9,7.8 34.5,9.3 32.5,10.9 23.9,9.3 	"/>
	<polygon class="st1" points="19.8,3.6 25.6,2 25.7,4.5 24.2,4.2 21.4,6.6 18.7,6.2 21.6,3.9 	"/>
	<polygon class="st1" points="17.3,12.5 11.8,13.6 11.6,11 13.2,11.3 16.2,8.8 18.9,9.2 15.7,12 	"/>
</g>
</svg>
